<?xml version="1.0" encoding="UTF-8"?>
<svg xmlns="http://www.w3.org/2000/svg" version="1.1" width="236" height="260" viewBox="0 0 944 1040" preserveAspectRatio="xMidYMid meet"><title>Logo Aprimorar — símbolo</title>
<path d="M0 0 C1.32 0 2.64 0 4 0 C4.33 1.32 4.66 2.64 5 4 C5.99 4.33 6.98 4.66 8 5 C8.33 5.66 8.66 6.32 9 7 C11.31 7.66 13.62 8.32 16 9 C17.65 10.98 19.3 12.96 21 15 C23.31 15.66 25.62 16.32 28 17 C29.65 18.98 31.3 20.96 33 23 C37 27 37 27 44 29 C45.65 30.98 47.3 32.96 49 35 C51.31 35.66 53.62 36.32 56 37 C60 41 60 41 60 51 C59.01 51.66 58.02 52.32 57 53 C56.34 55.31 55.68 57.62 55 60 C53.02 61.65 51.04 63.3 49 65 C45 69 45 69 43 76 C41.02 77.65 39.04 79.3 37 81 C35.02 83.31 33.04 85.62 31 88 C29.02 89.65 27.04 91.3 25 93 C24.34 93.99 23.68 94.98 23 96 C21.02 96.33 19.04 96.66 17 97 C15.02 99.31 13.04 101.62 11 104 C9.35 104.165 9.35 104.165 1 105 C0.34 105.99 -0.32 106.98 -1 108 C-2.65 108.165 -2.65 108.165 -11 109 C-11.66 111.31 -12.32 113.62 -13 116 C-13.66 116.33 -14.32 116.66 -15 117 C-15.144 119.289 -15.289 121.579 -15.438 123.938 C-16 131 -16 131 -19 133 C-19.165 135.31 -19.33 137.62 -19.5 140 C-20 147 -20 147 -23 149 C-23.33 152.3 -23.66 155.6 -24 159 C-24.495 159.33 -24.495 159.33 -27 161 C-27.165 163.97 -27.33 166.94 -27.5 170 C-28 179 -28 179 -31 181 C-31.165 183.31 -31.33 185.62 -31.5 188 C-32 195 -32 195 -35 197 C-35.165 199.97 -35.33 202.94 -35.5 206 C-36 215 -36 215 -39 217 C-39.165 219.97 -39.33 222.94 -39.5 226 C-40 235 -40 235 -43 237 C-43.302 241.326 -43.443 245.664 -43.5 250 C-43.667 262.778 -43.667 262.778 -47 265 C-47.303 269.994 -47.444 274.998 -47.5 280 C-47.667 294.778 -47.667 294.778 -51 297 C-51.305 303.995 -51.444 310.998 -51.5 318 C-51.667 338.778 -51.667 338.778 -55 341 C-55.481 346.694 -55.711 352.411 -55.812 358.125 C-55.901 361.263 -55.99 364.4 -56.082 367.633 C-55.903 368.848 -55.903 368.848 -55 375 C-45 375 -45 375 -43 372 C-39.7 371.67 -36.4 371.34 -33 371 C-32.34 370.01 -31.68 369.02 -31 368 C-27.7 367.67 -24.4 367.34 -21 367 C-20.34 366.01 -19.68 365.02 -19 364 C-15.7 363.67 -12.4 363.34 -9 363 C-8.34 362.01 -7.68 361.02 -7 360 C-3.7 359.67 -0.4 359.34 3 359 C3.66 358.01 4.32 357.02 5 356 C8.3 355.67 11.6 355.34 15 355 C15.66 354.01 16.32 353.02 17 352 C18.98 351.67 20.96 351.34 23 351 C23.66 350.01 24.32 349.02 25 348 C28.3 347.67 31.6 347.34 35 347 C35.66 346.01 36.32 345.02 37 344 C40.3 343.67 43.6 343.34 47 343 C47.66 342.01 48.32 341.02 49 340 C52.3 339.67 55.6 339.34 59 339 C59.66 338.01 60.32 337.02 61 336 C64.3 335.67 67.6 335.34 71 335 C71.66 334.01 72.32 333.02 73 332 C76.3 331.67 79.6 331.34 83 331 C83.66 330.01 84.32 329.02 85 328 C86.98 327.67 88.96 327.34 91 327 C91.66 326.01 92.32 325.02 93 324 C103 324 103 324 109 331 C111.31 331.66 113.62 332.32 116 333 C116.33 333.66 116.66 334.32 117 335 C119.31 335.66 121.62 336.32 124 337 C125.65 338.98 127.3 340.96 129 343 C131.31 343.66 133.62 344.32 136 345 C136.33 345.66 136.66 346.32 137 347 C139.31 347.66 141.62 348.32 144 349 C145.65 350.98 147.3 352.96 149 355 C151.31 355.66 153.62 356.32 156 357 C156.33 357.66 156.66 358.32 157 359 C159.31 359.66 161.62 360.32 164 361 C165.65 362.98 167.3 364.96 169 367 C171.31 367.66 173.62 368.32 176 369 C176.33 369.66 176.66 370.32 177 371 C179.31 371.66 181.62 372.32 184 373 C185.65 374.98 187.3 376.96 189 379 C191.31 379.66 193.62 380.32 196 381 C196.33 381.66 196.66 382.32 197 383 C199.31 383.66 201.62 384.32 204 385 C205.65 386.98 207.3 388.96 209 391 C211.31 391.66 213.62 392.32 216 393 C216.33 393.66 216.66 394.32 217 395 C219.31 395.66 221.62 396.32 224 397 C225.65 398.98 227.3 400.96 229 403 C231.31 403.66 233.62 404.32 236 405 C237.65 406.98 239.3 408.96 241 411 C243.31 411.66 245.62 412.32 248 413 C248.33 413.66 248.66 414.32 249 415 C251.31 415.66 253.62 416.32 256 417 C257.65 418.98 259.3 420.96 261 423 C263.31 423.66 265.62 424.32 268 425 C268.33 425.66 268.66 426.32 269 427 C271.31 427.66 273.62 428.32 276 429 C276 429.66 276 430.32 276 431 C277.32 431.66 278.64 432.32 280 433 C278 437 278 437 276 437 C275.67 437.99 275.34 438.98 275 440 C269 440.336 263 440.669 257 441 C256.34 441.99 255.68 442.98 255 444 C249 444.333 243 444.667 237 445 C236.34 445.99 235.68 446.98 235 448 C231.7 448.33 228.4 448.66 225 449 C224.34 449.99 223.68 450.98 223 452 C220.667 452.167 220.667 452.167 209 453 C208.34 453.99 207.68 454.98 207 456 C204.03 455.979 201.06 455.959 198 455.938 C189 456 189 456 187 460 C184 459 184 459 183.629 453.355 C183.585 448.585 183.543 443.814 183.504 439.043 C182.975 432.697 182.303 430.101 176 428 C177 431 177 431 180 433 C180.297 438.014 180.389 443.04 180.375 448.062 C180.383 450.817 180.39 453.572 180.398 456.41 C180 463 180 463 177 464 C176.67 464.99 176.34 465.98 176 467 C174.68 467.33 173.36 467.66 172 468 C170.68 466.02 169.36 464.04 168 462 C163 457 163 457 156 455 C155.67 454.34 155.34 453.68 155 453 C152.69 452.34 150.38 451.68 148 451 C147.67 450.34 147.34 449.68 147 449 C144.03 448.67 141.06 448.34 138 448 C137.01 447.01 136.02 446.02 135 445 C132.009 444.835 129.019 444.67 125.938 444.5 C117 444 117 444 115 441 C109.333 440.664 103.667 440.331 98 440 C97.01 439.01 96.02 438.02 95 437 C88.672 436.703 82.335 436.611 76 436.625 C74.268 436.621 74.268 436.621 65.5 436.602 C57 437 57 437 54 440 C51.174 440.165 48.349 440.33 45.438 440.5 C37 441 37 441 35 444 C30.334 444.336 25.667 444.67 21 445 C20.01 445.99 19.02 446.98 18 448 C15.03 448.33 12.06 448.66 9 449 C8.01 449.99 7.02 450.98 6 452 C4.35 452.33 2.7 452.66 1 453 C0.01 453.99 -0.98 454.98 -2 456 C-7 456 -7 456 -8 455 C-8 445 -8 445 -5 443 C-4.67 439.7 -4.34 436.4 -4 433 C-3.01 432.34 -2.02 431.68 -1 431 C-0.34 429.02 0.32 427.04 1 425 C5 420 5 420 11 419 C11 418.34 11 417.68 11 417 C5 417 5 417 3 420 C1.02 420.33 -0.96 420.66 -3 421 C-3.33 424.3 -3.66 427.6 -4 431 C-9 436 -9 436 -15 436 C-15.66 435.01 -16.32 434.02 -17 433 C-19.31 432.34 -21.62 431.68 -24 431 C-24.33 430.34 -24.66 429.68 -25 429 C-27.31 428.34 -29.62 427.68 -32 427 C-32.33 426.34 -32.66 425.68 -33 425 C-35.31 424.34 -37.62 423.68 -40 423 C-40.33 422.34 -40.66 421.68 -41 421 C-42.98 420.67 -44.96 420.34 -47 420 C-47.66 419.01 -48.32 418.02 -49 417 C-49.66 417 -50.32 417 -51 417 C-51.62 438.586 -51.62 438.586 -48 441 C-47.667 448.333 -47.333 455.667 -47 463 C-46.01 463.66 -45.02 464.32 -44 465 C-43.667 469.667 -43.333 474.333 -43 479 C-42.01 479.66 -41.02 480.32 -40 481 C-39.67 484.3 -39.34 487.6 -39 491 C-38.01 491.66 -37.02 492.32 -36 493 C-35.67 496.3 -35.34 499.6 -35 503 C-34.01 503.66 -33.02 504.32 -32 505 C-31.67 506.98 -31.34 508.96 -31 511 C-30.505 511.33 -30.505 511.33 -28 513 C-27.67 514.98 -27.34 516.96 -27 519 C-26.01 519.66 -25.02 520.32 -24 521 C-23.67 522.98 -23.34 524.96 -23 527 C-21.845 527.99 -21.845 527.99 -16 533 C-15.67 534.98 -15.34 536.96 -15 539 C-13.02 539 -11.04 539 -9 539 C-8.309 533.383 -8.309 533.383 -8.438 526.125 C-8.447 524.93 -8.447 524.93 -8.496 518.883 C-9 513 -9 513 -12 511 C-12.408 503.293 -12.602 495.709 -12.625 488 C-12.67 485.832 -12.715 483.664 -12.762 481.43 C-12.786 475.947 -12.423 470.466 -12 465 C-9.69 464.34 -7.38 463.68 -5 463 C-4.01 462.01 -3.02 461.02 -2 460 C-0.35 459.67 1.3 459.34 3 459 C3.99 458.01 4.98 457.02 6 456 C8.97 455.67 11.94 455.34 15 455 C15.99 454.01 16.98 453.02 18 452 C19.65 451.67 21.3 451.34 23 451 C23.99 450.01 24.98 449.02 26 448 C28.97 447.67 31.94 447.34 35 447 C35.66 446.01 36.32 445.02 37 444 C42.723 443.698 48.457 443.608 54.188 443.602 C57.691 443.598 61.195 443.594 64.805 443.59 C68.499 443.601 72.194 443.613 76 443.625 C79.694 443.613 83.389 443.602 87.195 443.59 C90.699 443.594 94.203 443.598 97.812 443.602 C101.057 443.605 104.302 443.608 107.645 443.612 C115 444 115 444 117 447 C119.97 447.33 122.94 447.66 126 448 C126.99 448.99 127.98 449.98 129 451 C131.97 451.33 134.94 451.66 138 452 C138.99 452.99 139.98 453.98 141 455 C143.97 455.33 146.94 455.66 150 456 C150.99 456.99 151.98 457.98 153 459 C155.31 459.66 157.62 460.32 160 461 C161.65 462.98 163.3 464.96 165 467 C167.31 467.66 169.62 468.32 172 469 C173.65 470.98 175.3 472.96 177 475 C177.99 475.66 178.98 476.32 180 477 C180.297 481.993 180.389 486.998 180.375 492 C180.383 494.743 180.39 497.486 180.398 500.312 C180 507 180 507 177 509 C176.835 511.31 176.67 513.62 176.5 516 C176 523 176 523 173 525 C172.34 527.31 171.68 529.62 171 532 C170.01 532.825 170.01 532.825 165 537 C164.34 539.31 163.68 541.62 163 544 C162.01 544.825 162.01 544.825 157 549 C155.02 551.31 153.04 553.62 151 556 C150.01 556.825 150.01 556.825 145 561 C143.02 563.31 141.04 565.62 139 568 C137.02 568.33 135.04 568.66 133 569 C132.34 569.99 131.68 570.98 131 572 C129.02 572.33 127.04 572.66 125 573 C124.34 573.99 123.68 574.98 123 576 C121.02 576.33 119.04 576.66 117 577 C116.34 577.99 115.68 578.98 115 580 C110.333 580.333 105.667 580.667 101 581 C100.34 581.99 99.68 582.98 99 584 C94.633 584.328 90.253 584.489 85.875 584.562 C81.582 584.639 77.288 584.764 73 585 C73 585.66 73 586.32 73 587 C75.97 587.33 78.94 587.66 82 588 C82.99 588.99 83.98 589.98 85 591 C87.31 591.66 89.62 592.32 92 593 C93.65 594.98 95.3 596.96 97 599 C98.155 599.99 98.155 599.99 104 605 C105.65 606.98 107.3 608.96 109 611 C110.155 611.99 110.155 611.99 116 617 C117.65 618.98 119.3 620.96 121 623 C123.31 623.66 125.62 624.32 128 625 C129.65 626.98 131.3 628.96 133 631 C134.155 631.99 134.155 631.99 140 637 C140.825 637.99 140.825 637.99 145 643 C145.99 643.66 146.98 644.32 148 645 C148.33 646.98 148.66 648.96 149 651 C151.31 652.98 153.62 654.96 156 657 C156.825 657.99 156.825 657.99 161 663 C161.99 663.66 162.98 664.32 164 665 C164.33 666.98 164.66 668.96 165 671 C167.31 672.98 169.62 674.96 172 677 C176 681 176 681 177 687 C177.99 687.66 178.98 688.32 180 689 C180.33 690.98 180.66 692.96 181 695 C181.99 695.66 182.98 696.32 184 697 C184.33 698.98 184.66 700.96 185 703 C185.99 703.66 186.98 704.32 188 705 C188.33 706.98 188.66 708.96 189 711 C189.99 711.66 190.98 712.32 192 713 C192.33 716.3 192.66 719.6 193 723 C193.99 723.66 194.98 724.32 196 725 C196.333 729.667 196.667 734.333 197 739 C197.99 739.66 198.98 740.32 200 741 C200.28 745.168 200.349 749.35 200.337 753.528 C200.338 756.21 200.338 758.893 200.338 761.657 C200.326 764.578 200.314 767.499 200.301 770.508 C200.308 776.608 200.317 782.708 200.326 788.809 C200.324 798.492 200.312 808.175 200.285 817.859 C200.264 827.159 200.28 836.458 200.301 845.758 C200.282 848.683 200.264 851.607 200.245 854.621 C200.25 855.959 200.25 855.959 200.275 862.731 C200.27 865.105 200.265 867.48 200.261 869.926 C200.383 870.763 200.383 870.763 201 875 C207 875 207 875 213 868 C213.99 867.175 213.99 867.175 219 863 C220.98 860.69 222.96 858.38 225 856 C225.99 855.175 225.99 855.175 231 851 C235 847 235 847 237 840 C237.66 839.67 238.32 839.34 239 839 C239 833 239 833 236 831 C235.67 829.02 235.34 827.04 235 825 C234.01 824.34 233.02 823.68 232 823 C231.667 817 231.333 811 231 805 C230.01 804.34 229.02 803.68 228 803 C227.276 789.483 227.276 789.483 231 787 C231.041 785.886 231.041 785.886 231.25 780.25 C232 773 232 773 239 767 C239.66 766.01 240.32 765.02 241 764 C242.98 763.67 244.96 763.34 247 763 C248.98 760.69 250.96 758.38 253 756 C254.98 755.67 256.96 755.34 259 755 C259.66 754.01 260.32 753.02 261 752 C282.028 751.028 282.028 751.028 288 757 C288.615 763.227 288.615 763.227 288.594 770.98 C288.592 772.367 288.592 772.367 288.586 779.381 C288.558 782.287 288.529 785.193 288.5 788.188 C288.503 791.105 288.505 794.023 288.508 797.029 C288.407 818.729 288.407 818.729 285 821 C284.67 824.3 284.34 827.6 284 831 C283.01 831.66 282.02 832.32 281 833 C280.67 836.3 280.34 839.6 280 843 C279.01 843.66 278.02 844.32 277 845 C276.67 848.3 276.34 851.6 276 855 C275.01 855.66 274.02 856.32 273 857 C272.34 859.31 271.68 861.62 271 864 C270.34 864.33 269.68 864.66 269 865 C268.67 868.3 268.34 871.6 268 875 C265.69 876.98 263.38 878.96 261 881 C260.34 883.31 259.68 885.62 259 888 C255 892 255 892 245 893 C244.34 893.99 243.68 894.98 243 896 C234.184 896.474 225.39 896.506 216.562 896.594 C209 897 209 897 207 900 C194.749 900.741 182.458 900.509 170.188 900.5 C166.709 900.528 163.23 900.557 159.646 900.586 C157.99 900.587 157.99 900.587 149.605 900.594 C146.544 900.601 143.483 900.608 140.329 900.615 C133 900 133 900 128 895 C127.719 887.922 127.718 880.832 127.875 873.75 C128.019 866.835 128.089 859.916 128 853 C127.01 852.67 126.02 852.34 125 852 C125.33 850.35 125.66 848.7 126 847 C126.66 847 127.32 847 128 847 C127.833 839.661 127.499 832.324 127 825 C126.34 825 125.68 825 125 825 C124.856 827.743 124.711 830.486 124.562 833.312 C124 842 124 842 121 845 C120.835 848.651 120.67 852.301 120.5 856.062 C120 867 120 867 117 869 C116.645 874.013 116.464 879.038 116.375 884.062 C116.083 898.917 116.083 898.917 115 900 C93.33 900.495 93.33 900.495 91 897 C85.339 896.696 79.669 896.556 74 896.5 C57.222 896.333 57.222 896.333 55 893 C50.006 892.697 45.002 892.556 40 892.5 C25.222 892.333 25.222 892.333 23 889 C20.03 888.835 17.06 888.67 14 888.5 C5 888 5 888 3 885 C0.69 884.835 -1.62 884.67 -4 884.5 C-11 884 -11 884 -13 881 C-15.97 880.835 -18.94 880.67 -22 880.5 C-31 880 -31 880 -33 877 C-35.31 876.34 -37.62 875.68 -40 875 C-41.65 873.02 -43.3 871.04 -45 869 C-45.99 868.34 -46.98 867.68 -48 867 C-48.33 865.02 -48.66 863.04 -49 861 C-49.99 860.34 -50.98 859.68 -52 859 C-52.33 857.02 -52.66 855.04 -53 853 C-53.99 852.34 -54.98 851.68 -56 851 C-56.33 849.02 -56.66 847.04 -57 845 C-57.99 844.34 -58.98 843.68 -60 843 C-60.33 841.02 -60.66 839.04 -61 837 C-62.155 836.01 -62.155 836.01 -68 831 C-68.33 829.02 -68.66 827.04 -69 825 C-69.99 824.34 -70.98 823.68 -72 823 C-72.33 819.7 -72.66 816.4 -73 813 C-73.99 812.34 -74.98 811.68 -76 811 C-76.33 809.02 -76.66 807.04 -77 805 C-77.99 804.34 -78.98 803.68 -80 803 C-80.33 801.02 -80.66 799.04 -81 797 C-81.99 796.34 -82.98 795.68 -84 795 C-84.33 793.02 -84.66 791.04 -85 789 C-85.99 788.34 -86.98 787.68 -88 787 C-88.33 785.02 -88.66 783.04 -89 781 C-89.99 780.34 -90.98 779.68 -92 779 C-92.33 775.7 -92.66 772.4 -93 769 C-93.99 768.34 -94.98 767.68 -96 767 C-96.33 765.02 -96.66 763.04 -97 761 C-97.99 760.34 -98.98 759.68 -100 759 C-100.33 755.7 -100.66 752.4 -101 749 C-101.99 748.34 -102.98 747.68 -104 747 C-104 743.7 -104 740.4 -104 737 C-105.32 737 -106.64 737 -108 737 C-108.33 737.99 -108.66 738.98 -109 740 C-113.666 740.336 -118.333 740.67 -123 741 C-123.66 741.99 -124.32 742.98 -125 744 C-128.3 744.33 -131.6 744.66 -135 745 C-135.66 745.99 -136.32 746.98 -137 748 C-140.3 748.33 -143.6 748.66 -147 749 C-147.66 749.99 -148.32 750.98 -149 752 C-150.98 752.33 -152.96 752.66 -155 753 C-155.66 753.99 -156.32 754.98 -157 756 C-160.3 756.33 -163.6 756.66 -167 757 C-167.66 757.99 -168.32 758.98 -169 760 C-170.98 760.33 -172.96 760.66 -175 761 C-175.66 761.99 -176.32 762.98 -177 764 C-180.3 764.33 -183.6 764.66 -187 765 C-187.66 765.99 -188.32 766.98 -189 768 C-190.98 768.33 -192.96 768.66 -195 769 C-195.66 769.99 -196.32 770.98 -197 772 C-198.98 772.33 -200.96 772.66 -203 773 C-203.66 773.99 -204.32 774.98 -205 776 C-206.98 776.33 -208.96 776.66 -211 777 C-212.98 779.31 -214.96 781.62 -217 784 C-218.98 784.33 -220.96 784.66 -223 785 C-223.66 785.99 -224.32 786.98 -225 788 C-226.98 788.33 -228.96 788.66 -231 789 C-232.98 791.31 -234.96 793.62 -237 796 C-241 800 -241 800 -247 801 C-248.98 803.31 -250.96 805.62 -253 808 C-254.98 809.65 -256.96 811.3 -259 813 C-263 817 -263 817 -265 824 C-266.98 825.65 -268.96 827.3 -271 829 C-271.66 831.31 -272.32 833.62 -273 836 C-273.66 836.33 -274.32 836.66 -275 837 C-275.228 843.309 -275.306 849.624 -275.312 855.938 C-275.321 857.685 -275.321 857.685 -275.363 866.527 C-275 875 -275 875 -272 877 C-271.835 877.99 -271.835 877.99 -271 883 C-270.01 883.66 -269.02 884.32 -268 885 C-268 888.3 -268 891.6 -268 895 C-266.68 895.66 -265.36 896.32 -264 897 C-266 901 -266 901 -268 901 C-268 904.3 -268 907.6 -268 911 C-270.31 912.98 -272.62 914.96 -275 917 C-276.98 919.31 -278.96 921.62 -281 924 C-285 928 -285 928 -295 929 C-295.66 929.99 -296.32 930.98 -297 932 C-302.66 932.298 -308.332 932.389 -314 932.375 C-317.114 932.383 -320.229 932.39 -323.438 932.398 C-331 932 -331 932 -333 929 C-336.3 928.67 -339.6 928.34 -343 928 C-343.66 927.01 -344.32 926.02 -345 925 C-347.31 924.34 -349.62 923.68 -352 923 C-352.33 922.34 -352.66 921.68 -353 921 C-355.31 920.34 -357.62 919.68 -360 919 C-364 915 -364 915 -365 909 C-365.99 908.34 -366.98 907.68 -368 907 C-368.165 906.01 -368.165 906.01 -369 901 C-369.99 900.34 -370.98 899.68 -372 899 C-372.33 895.7 -372.66 892.4 -373 889 C-373.99 888.67 -374.98 888.34 -376 888 C-376.375 878 -376.375 878 -376 868 C-375.01 867.67 -374.02 867.34 -373 867 C-372.67 863.7 -372.34 860.4 -372 857 C-371.01 856.34 -370.02 855.68 -369 855 C-368.34 852.69 -367.68 850.38 -367 848 C-366.34 847.67 -365.68 847.34 -365 847 C-364.34 844.69 -363.68 842.38 -363 840 C-362.01 839.175 -362.01 839.175 -357 835 C-355.02 832.69 -353.04 830.38 -351 828 C-350.01 827.175 -350.01 827.175 -345 823 C-343.02 820.69 -341.04 818.38 -339 816 C-338.01 815.175 -338.01 815.175 -333 811 C-332.34 810.01 -331.68 809.02 -331 808 C-329.02 807.67 -327.04 807.34 -325 807 C-323.02 804.69 -321.04 802.38 -319 800 C-317.02 799.67 -315.04 799.34 -313 799 C-312.34 798.01 -311.68 797.02 -311 796 C-309.02 795.67 -307.04 795.34 -305 795 C-304.34 794.01 -303.68 793.02 -303 792 C-301.02 791.67 -299.04 791.34 -297 791 C-295.02 788.69 -293.04 786.38 -291 784 C-287.7 783.67 -284.4 783.34 -281 783 C-280.34 782.01 -279.68 781.02 -279 780 C-277.02 779.67 -275.04 779.34 -273 779 C-272.34 778.01 -271.68 777.02 -271 776 C-269.02 775.67 -267.04 775.34 -265 775 C-264.34 774.01 -263.68 773.02 -263 772 C-259.7 771.67 -256.4 771.34 -253 771 C-252.34 770.01 -251.68 769.02 -251 768 C-249.02 767.67 -247.04 767.34 -245 767 C-244.34 766.01 -243.68 765.02 -243 764 C-239.7 763.67 -236.4 763.34 -233 763 C-232.34 762.01 -231.68 761.02 -231 760 C-227.7 759.67 -224.4 759.34 -221 759 C-220.34 758.01 -219.68 757.02 -219 756 C-215.7 755.67 -212.4 755.34 -209 755 C-208.34 754.01 -207.68 753.02 -207 752 C-202.333 751.667 -197.667 751.333 -193 751 C-192.34 750.01 -191.68 749.02 -191 748 C-186.333 747.667 -181.667 747.333 -177 747 C-176.34 746.01 -175.68 745.02 -175 744 C-170.333 743.667 -165.667 743.333 -161 743 C-160.34 742.01 -159.68 741.02 -159 740 C-154.333 739.667 -149.667 739.333 -145 739 C-144.34 738.01 -143.68 737.02 -143 736 C-137 735.667 -131 735.333 -125 735 C-124.34 734.01 -123.68 733.02 -123 732 C-120.463 731.835 -117.926 731.67 -115.312 731.5 C-112.899 731.335 -110.486 731.17 -108 731 C-109 728 -109 728 -112 727 C-112.336 722.334 -112.67 717.667 -113 713 C-113.99 712.34 -114.98 711.68 -116 711 C-116.33 707.7 -116.66 704.4 -117 701 C-117.99 700.34 -118.98 699.68 -120 699 C-120.333 694.333 -120.667 689.667 -121 685 C-121.99 684.34 -122.98 683.68 -124 683 C-124.333 677 -124.667 671 -125 665 C-125.99 664.34 -126.98 663.68 -128 663 C-128.333 657 -128.667 651 -129 645 C-129.99 644.34 -130.98 643.68 -132 643 C-132.333 635.667 -132.667 628.333 -133 621 C-133.99 620.34 -134.98 619.68 -136 619 C-136.393 609.133 -136.486 599.303 -136.527 589.43 C-136.7 573.2 -136.7 573.2 -140 571 C-140.302 565.277 -140.392 559.543 -140.398 553.812 C-140.402 550.309 -140.406 546.805 -140.41 543.195 C-140.404 541.348 -140.404 541.348 -140.375 532 C-140.387 528.306 -140.398 524.611 -140.41 520.805 C-140.406 517.301 -140.402 513.797 -140.398 510.188 C-140.395 506.943 -140.392 503.698 -140.388 500.355 C-140 493 -140 493 -137 491 C-136.693 481.983 -136.532 473.019 -136.5 464 C-136.405 437.27 -136.405 437.27 -133 435 C-132.698 430.674 -132.557 426.336 -132.5 422 C-132.333 409.222 -132.333 409.222 -129 407 C-128.698 402.674 -128.557 398.336 -128.5 394 C-128.333 381.222 -128.333 381.222 -125 379 C-124.835 375.37 -124.67 371.74 -124.5 368 C-124 357 -124 357 -121 355 C-120.835 352.69 -120.67 350.38 -120.5 348 C-120 341 -120 341 -117 339 C-116.835 336.03 -116.67 333.06 -116.5 330 C-116 321 -116 321 -113 319 C-112.835 316.03 -112.67 313.06 -112.5 310 C-112 301 -112 301 -109 299 C-108.835 296.69 -108.67 294.38 -108.5 292 C-108 285 -108 285 -105 283 C-104.67 279.7 -104.34 276.4 -104 273 C-103.01 272.34 -102.02 271.68 -101 271 C-100.835 268.69 -100.67 266.38 -100.5 264 C-100 257 -100 257 -97 255 C-96.835 252.69 -96.67 250.38 -96.5 248 C-96 241 -96 241 -93 239 C-92.67 235.7 -92.34 232.4 -92 229 C-91.505 228.67 -91.505 228.67 -89 227 C-88.835 224.69 -88.67 222.38 -88.5 220 C-88 213 -88 213 -85 211 C-84.67 207.7 -84.34 204.4 -84 201 C-83.505 200.67 -83.505 200.67 -81 199 C-80.67 195.7 -80.34 192.4 -80 189 C-79.505 188.67 -79.505 188.67 -77 187 C-76.67 183.7 -76.34 180.4 -76 177 C-75.505 176.67 -75.505 176.67 -73 175 C-72.67 171.7 -72.34 168.4 -72 165 C-71.505 164.67 -71.505 164.67 -69 163 C-68.34 160.69 -67.68 158.38 -67 156 C-66.34 155.67 -65.68 155.34 -65 155 C-64.67 151.7 -64.34 148.4 -64 145 C-63.505 144.67 -63.505 144.67 -61 143 C-60.67 139.7 -60.34 136.4 -60 133 C-59.505 132.67 -59.505 132.67 -57 131 C-56.67 127.7 -56.34 124.4 -56 121 C-55.505 120.67 -55.505 120.67 -53 119 C-52.67 115.7 -52.34 112.4 -52 109 C-51.505 108.67 -51.505 108.67 -49 107 C-48.34 104.69 -47.68 102.38 -47 100 C-46.34 99.67 -45.68 99.34 -45 99 C-44.34 96.69 -43.68 94.38 -43 92 C-42.34 91.67 -41.68 91.34 -41 91 C-40.67 87.7 -40.34 84.4 -40 81 C-39.505 80.67 -39.505 80.67 -37 79 C-36.34 76.69 -35.68 74.38 -35 72 C-34.34 71.67 -33.68 71.34 -33 71 C-32.34 68.69 -31.68 66.38 -31 64 C-30.34 63.67 -29.68 63.34 -29 63 C-28.34 60.69 -27.68 58.38 -27 56 C-26.34 55.67 -25.68 55.34 -25 55 C-24.67 51.7 -24.34 48.4 -24 45 C-23.01 44.34 -22.02 43.68 -21 43 C-20.34 40.69 -19.68 38.38 -19 36 C-18.34 35.67 -17.68 35.34 -17 35 C-16.34 32.69 -15.68 30.38 -15 28 C-14.34 27.67 -13.68 27.34 -13 27 C-12.34 24.69 -11.68 22.38 -11 20 C-10.34 19.67 -9.68 19.34 -9 19 C-8.34 16.69 -7.68 14.38 -7 12 C-6.34 11.67 -5.68 11.34 -5 11 C-4.34 8.69 -3.68 6.38 -3 4 C-2.34 4 -1.68 4 -1 4 C-0.67 2.68 -0.34 1.36 0 0 Z M61 580 C61 581.32 61 582.64 61 584 C62.98 584 64.96 584 67 584 C67 582.68 67 581.36 67 580 C65.02 580 63.04 580 61 580 Z M-105 732 C-103.68 732.33 -102.36 732.66 -101 733 C-101 733.99 -101 734.98 -101 736 C-99.35 735.67 -97.7 735.34 -96 735 C-96 729 -96 729 -97 728 C-103 728 -103 728 -105 732 Z " fill="#1863B7" transform="translate(376,0)"/>
<path d="M0 0 C10 0 10 0 11 1 C11.124 4.609 11.248 8.219 11.375 11.938 C12 23 12 23 15 25 C15.33 28.3 15.66 31.6 16 35 C16.99 35.66 17.98 36.32 19 37 C19.165 37.99 19.165 37.99 20 43 C20.99 43.66 21.98 44.32 23 45 C23.165 45.99 23.165 45.99 24 51 C26.31 52.98 28.62 54.96 31 57 C31.165 57.99 31.165 57.99 32 63 C34.31 64.98 36.62 66.96 39 69 C40.65 70.98 42.3 72.96 44 75 C46.31 76.98 48.62 78.96 51 81 C52.65 82.98 54.3 84.96 56 87 C60 91 60 91 67 93 C68.65 94.98 70.3 96.96 72 99 C76 103 76 103 83 105 C83.33 105.66 83.66 106.32 84 107 C86.31 107.66 88.62 108.32 91 109 C91.33 109.66 91.66 110.32 92 111 C94.31 111.66 96.62 112.32 99 113 C99.33 113.66 99.66 114.32 100 115 C102.31 115.66 104.62 116.32 107 117 C107.33 117.66 107.66 118.32 108 119 C110.31 119.66 112.62 120.32 115 121 C115.33 121.66 115.66 122.32 116 123 C118.31 123.66 120.62 124.32 123 125 C123.33 125.66 123.66 126.32 124 127 C127.3 127.33 130.6 127.66 134 128 C134.66 128.99 135.32 129.98 136 131 C138.31 131.66 140.62 132.32 143 133 C143.33 133.66 143.66 134.32 144 135 C147.3 135.33 150.6 135.66 154 136 C154.66 136.99 155.32 137.98 156 139 C158.31 139.165 160.62 139.33 163 139.5 C170 140 170 140 172 143 C175.3 143.33 178.6 143.66 182 144 C182.66 144.99 183.32 145.98 184 147 C186.31 147.165 188.62 147.33 191 147.5 C198 148 198 148 200 151 C203.63 151.165 207.26 151.33 211 151.5 C222 152 222 152 224 155 C226.97 155.165 229.94 155.33 233 155.5 C242 156 242 156 244 159 C248.326 159.302 252.664 159.443 257 159.5 C269.778 159.667 269.778 159.667 272 163 C277.661 163.304 283.331 163.444 289 163.5 C305.778 163.667 305.778 163.667 308 167 C312.326 167.302 316.664 167.443 321 167.5 C333.778 167.667 333.778 167.667 336 171 C338.31 171.66 340.62 172.32 343 173 C343.33 173.66 343.66 174.32 344 175 C346.31 175.66 348.62 176.32 351 177 C351.33 177.66 351.66 178.32 352 179 C354.31 179.66 356.62 180.32 359 181 C363 185 363 185 364 191 C364.99 191.66 365.98 192.32 367 193 C367.73 210.514 367.73 210.514 364 213 C363.34 215.31 362.68 217.62 362 220 C360.02 221.65 358.04 223.3 356 225 C355.34 225.99 354.68 226.98 354 228 C352.02 228.33 350.04 228.66 348 229 C347.34 229.99 346.68 230.98 346 232 C342.7 232.33 339.4 232.66 336 233 C335.67 233.99 335.34 234.98 335 236 C330.32 236.304 325.627 236.392 320.938 236.398 C318.058 236.402 315.178 236.406 312.211 236.41 C310.691 236.404 310.691 236.404 303 236.375 C299.96 236.387 296.921 236.398 293.789 236.41 C292.349 236.408 292.349 236.408 285.062 236.398 C282.393 236.395 279.723 236.392 276.973 236.388 C271 236 271 236 270 233 C265.695 232.694 261.378 232.556 257.062 232.5 C244.222 232.333 244.222 232.333 242 229 C237.674 228.698 233.336 228.557 229 228.5 C216.222 228.333 216.222 228.333 214 225 C211.03 224.835 208.06 224.67 205 224.5 C196 224 196 224 194 221 C191.69 220.835 189.38 220.67 187 220.5 C180 220 180 220 178 217 C175.69 216.835 173.38 216.67 171 216.5 C164 216 164 216 162 213 C158.7 212.67 155.4 212.34 152 212 C151.34 211.01 150.68 210.02 150 209 C146.7 208.67 143.4 208.34 140 208 C139.34 207.01 138.68 206.02 138 205 C134.7 204.67 131.4 204.34 128 204 C127.34 203.01 126.68 202.02 126 201 C122.7 200.67 119.4 200.34 116 200 C115.34 199.01 114.68 198.02 114 197 C111.69 196.34 109.38 195.68 107 195 C106.67 194.34 106.34 193.68 106 193 C103.69 192.34 101.38 191.68 99 191 C98.67 190.34 98.34 189.68 98 189 C95.69 188.34 93.38 187.68 91 187 C90.67 186.34 90.34 185.68 90 185 C87.69 184.34 85.38 183.68 83 183 C82.67 182.34 82.34 181.68 82 181 C79.69 180.34 77.38 179.68 75 179 C74.67 178.34 74.34 177.68 74 177 C71.69 176.34 69.38 175.68 67 175 C65.35 173.02 63.7 171.04 62 169 C59.69 168.34 57.38 167.68 55 167 C53.35 165.02 51.7 163.04 50 161 C47.69 160.34 45.38 159.68 43 159 C41.35 157.02 39.7 155.04 38 153 C35.69 151.02 33.38 149.04 31 147 C29.35 145.02 27.7 143.04 26 141 C23.69 139.02 21.38 137.04 19 135 C17.35 133.02 15.7 131.04 14 129 C11.69 127.02 9.38 125.04 7 123 C6.67 121.02 6.34 119.04 6 117 C3.69 115.02 1.38 113.04 -1 111 C-1.165 110.01 -1.165 110.01 -2 105 C-2.99 104.34 -3.98 103.68 -5 103 C-5.165 102.01 -5.165 102.01 -6 97 C-6.99 96.34 -7.98 95.68 -9 95 C-9.333 90.333 -9.667 85.667 -10 81 C-10.99 80.34 -11.98 79.68 -13 79 C-13.301 70.636 -13.416 62.363 -13.375 54 C-13.387 51.641 -13.398 49.282 -13.41 46.852 C-13.38 29.253 -13.38 29.253 -10 27 C-9.67 23.7 -9.34 20.4 -9 17 C-8.01 16.34 -7.02 15.68 -6 15 C-5.34 12.69 -4.68 10.38 -4 8 C-3.34 7.67 -2.68 7.34 -2 7 C-1.34 4.69 -0.68 2.38 0 0 Z " fill="#79B70F" transform="translate(177,804)"/>
<path d="M0 0 C2.372 -0.008 4.744 -0.015 7.188 -0.023 C13 0.375 13 0.375 15 3.375 C17.97 3.54 20.94 3.705 24 3.875 C33 4.375 33 4.375 35 7.375 C36.155 7.457 36.155 7.457 42 7.875 C49 8.375 49 8.375 51 11.375 C53.31 12.035 55.62 12.695 58 13.375 C58.33 15.355 58.66 17.335 59 19.375 C61.31 21.355 63.62 23.335 66 25.375 C66.33 27.355 66.66 29.335 67 31.375 C67.99 31.705 68.98 32.035 70 32.375 C70.3 37.701 70.389 43.04 70.375 48.375 C70.383 51.324 70.39 54.274 70.398 57.312 C70 64.375 70 64.375 67 65.375 C66.34 67.685 65.68 69.995 65 72.375 C63.02 74.025 61.04 75.675 59 77.375 C57.02 79.685 55.04 81.995 53 84.375 C51.02 86.025 49.04 87.675 47 89.375 C46.34 90.365 45.68 91.355 45 92.375 C43.02 92.705 41.04 93.035 39 93.375 C37.02 95.685 35.04 97.995 33 100.375 C31.02 100.705 29.04 101.035 27 101.375 C25.02 103.685 23.04 105.995 21 108.375 C19.02 108.705 17.04 109.035 15 109.375 C14.34 110.365 13.68 111.355 13 112.375 C11.35 112.54 11.35 112.54 3 113.375 C2.34 114.365 1.68 115.355 1 116.375 C-0.98 116.705 -2.96 117.035 -5 117.375 C-5.66 118.365 -6.32 119.355 -7 120.375 C-9.333 120.542 -9.333 120.542 -21 121.375 C-21.66 122.365 -22.32 123.355 -23 124.375 C-24.65 124.54 -24.65 124.54 -33 125.375 C-33.66 126.365 -34.32 127.355 -35 128.375 C-38.3 128.705 -41.6 129.035 -45 129.375 C-45.66 130.365 -46.32 131.355 -47 132.375 C-51.667 132.708 -56.333 133.042 -61 133.375 C-61.66 134.365 -62.32 135.355 -63 136.375 C-69 136.708 -75 137.042 -81 137.375 C-81.66 138.365 -82.32 139.355 -83 140.375 C-90.333 140.708 -97.667 141.042 -105 141.375 C-105.66 142.365 -106.32 143.355 -107 144.375 C-115.816 144.849 -124.61 144.881 -133.438 144.969 C-141 145.375 -141 145.375 -143 148.375 C-147.034 148.673 -151.084 148.759 -155.129 148.763 C-156.427 148.768 -156.427 148.768 -162.996 148.792 C-165.823 148.786 -168.65 148.78 -171.562 148.773 C-174.44 148.776 -177.318 148.779 -180.283 148.782 C-186.383 148.784 -192.483 148.779 -198.583 148.766 C-207.959 148.75 -217.335 148.766 -226.711 148.785 C-232.62 148.783 -238.529 148.779 -244.438 148.773 C-245.851 148.776 -245.851 148.776 -253.004 148.792 C-255.6 148.782 -258.196 148.773 -260.871 148.763 C-262.021 148.762 -262.021 148.762 -267.838 148.756 C-273 148.375 -273 148.375 -275 145.375 C-279.994 145.072 -284.998 144.931 -290 144.875 C-304.778 144.708 -304.778 144.708 -307 141.375 C-310.63 141.21 -314.26 141.045 -318 140.875 C-329 140.375 -329 140.375 -331 137.375 C-334.63 137.21 -338.26 137.045 -342 136.875 C-353 136.375 -353 136.375 -355 133.375 C-357.31 133.21 -359.62 133.045 -362 132.875 C-369 132.375 -369 132.375 -371 129.375 C-373.31 129.21 -375.62 129.045 -378 128.875 C-385 128.375 -385 128.375 -387 125.375 C-389.31 125.21 -391.62 125.045 -394 124.875 C-401 124.375 -401 124.375 -403 121.375 C-406.3 121.045 -409.6 120.715 -413 120.375 C-413.66 119.385 -414.32 118.395 -415 117.375 C-418.3 117.045 -421.6 116.715 -425 116.375 C-425.33 115.385 -425.66 114.395 -426 113.375 C-428.31 113.045 -430.62 112.715 -433 112.375 C-433 111.055 -433 109.735 -433 108.375 C-426.508 107.879 -426.508 107.879 -418.125 107.938 C-415.364 107.939 -412.603 107.94 -409.758 107.941 C-403 108.375 -403 108.375 -401 111.375 C-397.37 111.54 -393.74 111.705 -390 111.875 C-379 112.375 -379 112.375 -377 115.375 C-374 114.375 -374 114.375 -373 112.375 C-363 112.375 -363 112.375 -361 115.375 C-354.005 115.68 -347.002 115.819 -340 115.875 C-319.222 116.042 -319.222 116.042 -317 119.375 C-314 118.375 -314 118.375 -313 116.375 C-303.156 116.074 -293.326 115.958 -283.479 115.896 C-267.209 115.688 -267.209 115.688 -265 112.375 C-254.274 111.981 -243.583 111.889 -232.852 111.848 C-215.2 111.675 -215.2 111.675 -213 108.375 C-203.143 107.9 -193.305 107.869 -183.438 107.781 C-175 107.375 -175 107.375 -173 104.375 C-170.667 104.208 -170.667 104.208 -159 103.375 C-158.34 102.385 -157.68 101.395 -157 100.375 C-154.667 100.208 -154.667 100.208 -143 99.375 C-142.34 98.385 -141.68 97.395 -141 96.375 C-135 96.375 -135 96.375 -133 99.375 C-130 98.375 -130 98.375 -129 96.375 C-127.02 96.045 -125.04 95.715 -123 95.375 C-122.34 94.385 -121.68 93.395 -121 92.375 C-119.02 92.045 -117.04 91.715 -115 91.375 C-114.34 90.385 -113.68 89.395 -113 88.375 C-111.02 88.045 -109.04 87.715 -107 87.375 C-106.34 86.385 -105.68 85.395 -105 84.375 C-103.02 84.045 -101.04 83.715 -99 83.375 C-98.34 82.385 -97.68 81.395 -97 80.375 C-95.02 80.045 -93.04 79.715 -91 79.375 C-90.34 78.385 -89.68 77.395 -89 76.375 C-87.35 76.21 -87.35 76.21 -79 75.375 C-77.02 73.065 -75.04 70.755 -73 68.375 C-71.02 68.045 -69.04 67.715 -67 67.375 C-63 63.375 -63 63.375 -61 56.375 C-59.02 54.725 -57.04 53.075 -55 51.375 C-53.02 49.065 -51.04 46.755 -49 44.375 C-47.02 42.725 -45.04 41.075 -43 39.375 C-42.34 37.065 -41.68 34.755 -41 32.375 C-40.34 32.045 -39.68 31.715 -39 31.375 C-38.34 29.065 -37.68 26.755 -37 24.375 C-36.34 24.045 -35.68 23.715 -35 23.375 C-34.34 21.065 -33.68 18.755 -33 16.375 C-29 12.375 -29 12.375 -26 12.375 C-25.67 11.055 -25.34 9.735 -25 8.375 C-21 4.375 -21 4.375 -15 3.375 C-11.539 -1.816 -5.847 -0.019 0 0 Z " fill="#00A1DF" transform="translate(874,815.625)"/>
<path d="M0 0 C0 1.32 0 2.64 0 4 C-2.31 4.33 -4.62 4.66 -7 5 C-7.33 5.99 -7.66 6.98 -8 8 C-12.666 8.336 -17.333 8.67 -22 9 C-22.66 9.99 -23.32 10.98 -24 12 C-25.65 12.165 -25.65 12.165 -34 13 C-34.66 13.99 -35.32 14.98 -36 16 C-39.3 16.33 -42.6 16.66 -46 17 C-46.33 17.495 -46.33 17.495 -48 20 C-48.99 20.165 -48.99 20.165 -54 21 C-54.33 21.495 -54.33 21.495 -56 24 C-59.3 24.33 -62.6 24.66 -66 25 C-66.33 25.495 -66.33 25.495 -68 28 C-68.99 28.165 -68.99 28.165 -74 29 C-74.33 29.495 -74.33 29.495 -76 32 C-77.65 32.165 -77.65 32.165 -86 33 C-86.66 33.99 -87.32 34.98 -88 36 C-88.99 36.165 -88.99 36.165 -94 37 C-94.66 37.99 -95.32 38.98 -96 40 C-96.99 40.165 -96.99 40.165 -102 41 C-102.66 41.99 -103.32 42.98 -104 44 C-104.99 44.165 -104.99 44.165 -110 45 C-111.98 47.31 -113.96 49.62 -116 52 C-116.99 52.165 -116.99 52.165 -122 53 C-122.66 53.99 -123.32 54.98 -124 56 C-124.99 56.165 -124.99 56.165 -130 57 C-131.98 59.31 -133.96 61.62 -136 64 C-140 68 -140 68 -146 69 C-147.98 71.31 -149.96 73.62 -152 76 C-153.98 77.65 -155.96 79.3 -158 81 C-162 85 -162 85 -164 92 C-165.98 93.65 -167.96 95.3 -170 97 C-170.66 99.31 -171.32 101.62 -172 104 C-172.33 104.165 -172.33 104.165 -174 105 C-174.228 111.309 -174.306 117.624 -174.312 123.938 C-174.321 125.685 -174.321 125.685 -174.363 134.527 C-174 143 -174 143 -171 145 C-170.67 146.98 -170.34 148.96 -170 151 C-169.505 151.33 -169.505 151.33 -167 153 C-167 156.3 -167 159.6 -167 163 C-166.34 163.33 -166.34 163.33 -163 165 C-165 169 -165 169 -167 169 C-167 172.3 -167 175.6 -167 179 C-169.31 180.98 -171.62 182.96 -174 185 C-175.98 187.31 -177.96 189.62 -180 192 C-184 196 -184 196 -194 197 C-194.66 197.99 -195.32 198.98 -196 200 C-201.66 200.298 -207.332 200.389 -213 200.375 C-216.114 200.383 -219.229 200.39 -222.438 200.398 C-230 200 -230 200 -232 197 C-235.3 196.67 -238.6 196.34 -242 196 C-242.66 195.01 -243.32 194.02 -244 193 C-246.31 192.34 -248.62 191.68 -251 191 C-251.165 190.67 -251.165 190.67 -252 189 C-254.31 188.34 -256.62 187.68 -259 187 C-263 183 -263 183 -264 177 C-264.99 176.34 -265.98 175.68 -267 175 C-267.33 173.02 -267.66 171.04 -268 169 C-268.99 168.34 -269.98 167.68 -271 167 C-271.165 165.35 -271.165 165.35 -272 157 C-272.99 156.67 -273.98 156.34 -275 156 C-275.375 146 -275.375 146 -275 136 C-274.01 135.67 -273.02 135.34 -272 135 C-271.67 131.7 -271.34 128.4 -271 125 C-270.505 124.67 -270.505 124.67 -268 123 C-267.34 120.69 -266.68 118.38 -266 116 C-265.67 115.835 -265.67 115.835 -264 115 C-263.34 112.69 -262.68 110.38 -262 108 C-260.02 106.35 -258.04 104.7 -256 103 C-254.02 100.69 -252.04 98.38 -250 96 C-248.02 94.35 -246.04 92.7 -244 91 C-242.02 88.69 -240.04 86.38 -238 84 C-236.02 82.35 -234.04 80.7 -232 79 C-231.67 78.505 -231.67 78.505 -230 76 C-229.01 75.835 -229.01 75.835 -224 75 C-222.02 72.69 -220.04 70.38 -218 68 C-217.01 67.835 -217.01 67.835 -212 67 C-211.67 66.505 -211.67 66.505 -210 64 C-208.02 63.67 -206.04 63.34 -204 63 C-203.34 62.01 -202.68 61.02 -202 60 C-200.02 59.67 -198.04 59.34 -196 59 C-195.01 57.845 -195.01 57.845 -190 52 C-188.35 51.835 -188.35 51.835 -180 51 C-179.34 50.01 -178.68 49.02 -178 48 C-176.02 47.67 -174.04 47.34 -172 47 C-171.34 46.01 -170.68 45.02 -170 44 C-168.02 43.67 -166.04 43.34 -164 43 C-163.34 42.01 -162.68 41.02 -162 40 C-160.35 39.835 -160.35 39.835 -152 39 C-151.34 38.01 -150.68 37.02 -150 36 C-149.01 35.835 -149.01 35.835 -144 35 C-143.34 34.01 -142.68 33.02 -142 32 C-138.7 31.67 -135.4 31.34 -132 31 C-131.67 30.505 -131.67 30.505 -130 28 C-126.7 27.67 -123.4 27.34 -120 27 C-119.67 26.505 -119.67 26.505 -118 24 C-114.7 23.67 -111.4 23.34 -108 23 C-107.67 22.505 -107.67 22.505 -106 20 C-101.333 19.667 -96.667 19.333 -92 19 C-91.67 18.505 -91.67 18.505 -90 16 C-85.333 15.667 -80.667 15.333 -76 15 C-75.34 14.01 -74.68 13.02 -74 12 C-69.333 11.667 -64.667 11.333 -60 11 C-59.34 10.01 -58.68 9.02 -58 8 C-53.333 7.667 -48.667 7.333 -44 7 C-43.34 6.01 -42.68 5.02 -42 4 C-36 3.667 -30 3.333 -24 3 C-19.597 -3.604 -7 -0.282 0 0 Z " fill="#FFAE00" transform="translate(275,732)"/>
<path d="M0 0 C0.66 0.99 1.32 1.98 2 3 C7.995 3.413 13.996 3.748 20 4 C21 5 21 5 20.167 10.726 C19.477 18.428 19.244 23.74 22 31 C32.72 34.688 43.503 33.412 54.688 32.688 C60.794 32.434 66.903 32.208 73.012 32.012 C74.375 31.932 74.375 31.932 81.276 31.526 C88 32 88 32 94 39 C96.31 39.66 98.62 40.32 101 41 C105 45 105 45 106 51 C108.31 52.98 110.62 54.96 113 57 C117 61 117 61 118 67 C118.99 67.66 119.98 68.32 121 69 C121.333 73.667 121.667 78.333 122 83 C122.99 83.66 123.98 84.32 125 85 C125 91 125 91 122 93 C121.67 96.3 121.34 99.6 121 103 C120.01 103.66 119.02 104.32 118 105 C117.34 107.31 116.68 109.62 116 112 C114.02 113.65 112.04 115.3 110 117 C108.02 119.31 106.04 121.62 104 124 C100 128 100 128 94 129 C92.02 131.31 90.04 133.62 88 136 C86.02 136.33 84.04 136.66 82 137 C81.34 137.99 80.68 138.98 80 140 C78.02 140.33 76.04 140.66 74 141 C73.34 141.99 72.68 142.98 72 144 C70.02 144.33 68.04 144.66 66 145 C65.34 145.99 64.68 146.98 64 148 C62.02 148.33 60.04 148.66 58 149 C57.34 149.99 56.68 150.98 56 152 C52.7 152.33 49.4 152.66 46 153 C45.34 153.99 44.68 154.98 44 156 C40.7 156.33 37.4 156.66 34 157 C33.34 157.99 32.68 158.98 32 160 C27.667 160.337 23.334 160.67 19 161 C18.01 161.99 17.02 162.98 16 164 C15.01 163.67 14.02 163.34 13 163 C13 161.02 13 159.04 13 157 C19 155 19 155 21 155 C21.33 154.01 21.66 153.02 22 152 C23.98 151.67 25.96 151.34 28 151 C28.66 150.01 29.32 149.02 30 148 C31.98 147.67 33.96 147.34 36 147 C36.99 145.845 36.99 145.845 42 140 C46 136 46 136 52 135 C56 131 56 131 58 124 C59.98 122.35 61.96 120.7 64 119 C64.66 116.69 65.32 114.38 66 112 C66.66 111.67 67.32 111.34 68 111 C68.227 106.025 68.306 101.043 68.312 96.062 C68.321 94.686 68.321 94.686 68.363 87.723 C68 81 68 81 65 79 C64.67 77.02 64.34 75.04 64 73 C61.69 71.02 59.38 69.04 57 67 C55.35 65.02 53.7 63.04 52 61 C48 57 48 57 41 55 C39.35 53.02 37.7 51.04 36 49 C33.69 48.34 31.38 47.68 29 47 C28.67 46.34 28.34 45.68 28 45 C25.69 44.34 23.38 43.68 21 43 C20.67 42.34 20.34 41.68 20 41 C17.69 40.34 15.38 39.68 13 39 C12.67 38.34 12.34 37.68 12 37 C9.69 36.34 7.38 35.68 5 35 C4.67 34.34 4.34 33.68 4 33 C0.7 32.67 -2.6 32.34 -6 32 C-6.66 31.01 -7.32 30.02 -8 29 C-10.31 28.34 -12.62 27.68 -15 27 C-15.33 26.34 -15.66 25.68 -16 25 C-19.3 24.67 -22.6 24.34 -26 24 C-26.66 23.01 -27.32 22.02 -28 21 C-30.31 20.34 -32.62 19.68 -35 19 C-39 15 -39 15 -39 9 C-36.69 8.34 -34.38 7.68 -32 7 C-31.34 6.01 -30.68 5.02 -30 4 C-24 3.667 -18 3.333 -12 3 C-10 0 -10 0 0 0 Z " fill="#F64F04" transform="translate(679,708)"/>
<path d="M0 0 C3 1 3 1 3.375 9.938 C3 19 3 19 0 21 C-0.66 23.31 -1.32 25.62 -2 28 C-2.66 28.33 -3.32 28.66 -4 29 C-4.33 32.3 -4.66 35.6 -5 39 C-5.99 39.66 -6.98 40.32 -8 41 C-8.66 43.31 -9.32 45.62 -10 48 C-14 52 -14 52 -20 52 C-25 47 -25 47 -25 41 C-24.01 40.34 -23.02 39.68 -22 39 C-21.34 36.69 -20.68 34.38 -20 32 C-19.01 31.175 -19.01 31.175 -14 27 C-13.625 21.002 -13.292 15.002 -13 9 C-8 4 -8 4 -2 4 C-1.34 2.68 -0.68 1.36 0 0 Z " fill="#1863B7" transform="translate(637,464)"/>
<path d="M0 0 C0 1.32 0 2.64 0 4 C-3.3 4.33 -6.6 4.66 -10 5 C-10.33 5.495 -10.33 5.495 -12 8 C-13.98 8.33 -15.96 8.66 -18 9 C-18.33 9.495 -18.33 9.495 -20 12 C-20.99 12 -21.98 12 -23 12 C-21.293 5.173 -18.767 4.128 -12 3 C-10 0 -10 0 0 0 Z " fill="#1863B7" transform="translate(871,816)"/>
</svg>
